<?xml version="1.0" encoding="UTF-8"?>
<svg id="Capa_1" data-name="Capa 1" xmlns="http://www.w3.org/2000/svg" viewBox="0 0 329 74">
  <defs>
    <style>
      .cls-1 {
        fill: #397b57;
        stroke-width: 0px;
      }
    </style>
  </defs>
  <path class="cls-1" d="m89.19,51.73c0,4.07-.68,7.61-2.05,10.64-1.37,3.03-3.31,5.34-5.81,6.94-2.51,1.6-5.43,2.39-8.78,2.39s-6.17-.8-8.69-2.41-4.49-3.89-5.88-6.87c-1.4-2.97-2.11-6.42-2.15-10.33v-2.99c0-3.99.69-7.51,2.08-10.57,1.39-3.06,3.35-5.4,5.89-7.03,2.54-1.62,5.44-2.44,8.71-2.44s6.26.8,8.79,2.41,4.49,3.93,5.86,6.98,2.05,6.6,2.05,10.65v2.62Zm-5.44-2.68c0-4.92-.99-8.7-2.96-11.33-1.98-2.63-4.74-3.95-8.29-3.95s-6.18,1.32-8.17,3.95c-1.99,2.63-3.01,6.29-3.06,10.96v3.05c0,4.77,1,8.52,3.01,11.24s4.76,4.09,8.28,4.09,6.27-1.29,8.21-3.86c1.94-2.57,2.94-6.27,2.99-11.07v-3.08Z"/>
  <path class="cls-1" d="m125.3,34.12h-13.34v37.02h-5.44v-37.02h-13.31v-4.47h32.09v4.47Z"/>
  <path class="cls-1" d="m152.12,60.28h-17.39l-3.9,10.86h-5.64l15.85-41.5h4.79l15.88,41.5h-5.61l-3.96-10.86Zm-15.73-4.48h14.11l-7.07-19.41-7.04,19.41Z"/>
  <path class="cls-1" d="m199.17,71.14h-5.5l-20.89-31.98v31.98h-5.5V29.64h5.5l20.95,32.12V29.64h5.44v41.5Z"/>
  <path class="cls-1" d="m214.18,71.14h-4.31V29.68h4.31v41.46Z"/>
  <path class="cls-1" d="m255.29,57.97c-.51,4.39-2.13,7.78-4.86,10.16s-6.35,3.58-10.87,3.58c-4.9,0-8.83-1.76-11.78-5.27s-4.43-8.22-4.43-14.11v-3.99c0-3.86.69-7.25,2.07-10.18,1.38-2.93,3.33-5.17,5.86-6.74,2.53-1.57,5.45-2.35,8.78-2.35,4.41,0,7.94,1.23,10.6,3.69s4.21,5.87,4.65,10.22h-5.5c-.47-3.32-1.51-5.72-3.09-7.2-1.59-1.49-3.81-2.23-6.66-2.23-3.5,0-6.24,1.29-8.22,3.88-1.99,2.59-2.98,6.27-2.98,11.04v4.02c0,4.51.94,8.09,2.82,10.75s4.51,3.99,7.89,3.99c3.04,0,5.37-.69,7-2.07,1.62-1.38,2.7-3.78,3.23-7.2h5.5Z"/>
  <path class="cls-1" d="m285.67,60.28h-17.39l-3.9,10.86h-5.64l15.85-41.5h4.79l15.88,41.5h-5.61l-3.96-10.86Zm-15.73-4.48h14.11l-7.07-19.41-7.04,19.41Z"/>
  <path class="cls-1" d="m306.33,66.66h19.67v4.48h-25.17V29.64h5.5v37.02Z"/>
  <path class="cls-1" d="m47.22,52.89c-1.3-1.76-3.07-2.95-5.32-3.58,1.9-.82,3.4-1.97,4.5-3.46,1.1-1.49,1.65-3.21,1.65-5.14,0-3.65-1.14-6.4-3.41-8.27-2.27-1.86-5.66-2.79-10.16-2.79h-7.9v4.47h7.9c2.72,0,4.74.52,6.07,1.56,1.33,1.04,2,2.7,2,4.98,0,2.06-.72,3.68-2.15,4.89-1.43,1.2-3.35,1.8-5.74,1.8h-8.07v4.39h8.93c5.43,0,8.15,2.5,8.15,7.49,0,2.32-.74,4.14-2.21,5.46-1.47,1.32-3.48,1.98-6.03,1.98h-8.84v4.48h8.73c4.41,0,7.82-1.06,10.23-3.19,2.41-2.13,3.62-5.05,3.62-8.78,0-2.43-.65-4.53-1.95-6.29Z"/>
  <g>
    <path class="cls-1" d="m20.54,70.67l-3.47-.66s-12.15-7.22-12.8-16.85c-.65-9.63,4.34-15.75,4.34-15.75,0,0,4.77-7.22,19.09-12.69,0,0,5.42-2.41,7.59-7.44,0,0,6.08,13.13-5.86,25.6,0,0-2.93,3.17-14,4.7,0,0-3.47.66-6.08,2.84,0,0,.43-10.72,7.59-15.53,0,0-4.34,3.06-4.77,3.94-.74,1.5-6.05,6.8-5.08,14.27.19,1.47.81,4.55,3.35,7.83.64.84,1.58,1.99,2.82,3.28,1.08,1.13,1.94,1.9,3.25,3.06,1,.89,2.35,2.06,4.01,3.39Z"/>
    <path class="cls-1" d="m3.4,42.88s-3.04-10.5,3.04-18.82c6.08-8.31,9.55-15.53,9.55-15.53,0,0,2.17-5.47,1.95-7.22,0,0,5.64,4.16,4.56,23.85,0,0-9.44,4.7-10.52,6.24,0,0,.43-7.22,1.08-8.31-.36.64-.84,1.53-1.33,2.63-.54,1.2-1.1,2.46-1.49,4.16-.21.9-.42,2.17-.43,3.72-.79.75-1.61,1.63-6.4,9.3Z"/>
  </g>
</svg>