<!DOCTYPE svg PUBLIC "-//W3C//DTD SVG 1.1//EN" "http://www.w3.org/Graphics/SVG/1.1/DTD/svg11.dtd">
<!-- Uploaded to: SVG Repo, www.svgrepo.com, Transformed by: SVG Repo Mixer Tools -->
<svg fill="#ffffff" height="800px" width="800px" version="1.1" id="Layer_1" xmlns="http://www.w3.org/2000/svg" xmlns:xlink="http://www.w3.org/1999/xlink" viewBox="0 0 512 512" xml:space="preserve" stroke="#ffffff">
<g id="SVGRepo_bgCarrier" stroke-width="0"/>
<g id="SVGRepo_tracerCarrier" stroke-linecap="round" stroke-linejoin="round"/>
<g id="SVGRepo_iconCarrier"> <g> <g> <path d="M492.312,19.663c-26.187-26.186-68.796-26.187-94.983,0L254.853,162.138l-11.872-11.872 c-6.556-6.557-17.188-6.557-23.746,0c-6.557,6.557-6.557,17.188,0,23.746c17.213,17.213,30.278,30.278,47.492,47.492 l-47.492,47.492l-83.11-83.11c-6.556-6.557-17.188-6.556-23.746,0l-36.281,36.281c-34.14,34.14-58.048,77.022-69.141,124.012 c-11.093,46.99-8.886,96.037,6.381,141.84c1.671,5.013,5.606,8.947,10.62,10.619c44.245,14.747,93.28,17.845,141.84,6.382 c46.99-11.093,89.872-35.001,124.012-69.141l36.281-36.281c6.557-6.557,6.557-17.188,0-23.746l-83.11-83.11l47.492-47.492 c4.897,4.897,42.6,42.6,47.492,47.491c6.556,6.557,17.188,6.559,23.746,0c6.557-6.557,6.557-17.188,0-23.746l-11.873-11.873 l35.616-35.615c0.001-0.001,0.002-0.002,0.003-0.003c0.001-0.001,0.002-0.002,0.003-0.005l106.853-106.852 C518.559,88.399,518.565,45.914,492.312,19.663z M290.471,387.724l-24.408,24.408c-58.976,58.974-143.877,80.5-223.401,57.18 c-23.319-79.525-1.793-164.428,57.181-223.402l24.408-24.407l71.237,71.237l-35.619,35.619c-6.557,6.557-6.557,17.188,0,23.746 c3.279,3.279,7.576,4.919,11.872,4.919c4.296,0,8.595-1.639,11.872-4.919l35.619-35.619L290.471,387.724z M326.091,233.375 l-47.492-47.491l23.746-23.747l47.492,47.492L326.091,233.375z M468.566,90.9l-94.984,94.984l-47.491-47.491l94.984-94.984 c13.094-13.092,34.398-13.094,47.491,0C481.692,56.535,481.691,77.774,468.566,90.9z"/> </g> </g> </g>
</svg>