<?xml version="1.0" encoding="UTF-8"?>
<svg id="Capa_1" data-name="Capa 1" xmlns="http://www.w3.org/2000/svg" viewBox="0 0 148 148">
  <defs>
    <style>
      .cls-1 {
        fill: #397b57;
        stroke-width: 0px;
      }
    </style>
  </defs>
  <path class="cls-1" d="m74.25,1.5C34.07,1.5,1.5,34.07,1.5,74.25s32.57,72.75,72.75,72.75,72.75-32.57,72.75-72.75S114.43,1.5,74.25,1.5Zm-32.8,52.27c10.23-14,16.08-26.17,16.08-26.17,0,0,3.65-9.21,3.29-12.16,0,0,9.5,7,7.68,40.17,0,0-15.9,7.92-17.73,10.5,0,0,.73-12.16,1.83-14-.61,1.08-1.41,2.58-2.24,4.42-.91,2.03-1.86,4.14-2.51,7-.35,1.52-.71,3.65-.73,6.27-1.33,1.27-2.72,2.74-10.78,15.66,0,0-5.12-17.69,5.12-31.69Zm65.89,73.91c-4.07,3.59-9.81,5.38-17.24,5.38h-14.7v-7.54h14.9c4.29,0,7.67-1.11,10.15-3.34,2.48-2.23,3.72-5.29,3.72-9.19,0-8.42-4.58-12.62-13.73-12.62h-15.04v-7.39h13.6c4.03,0,7.26-1.01,9.67-3.03,2.42-2.02,3.62-4.76,3.62-8.23,0-3.85-1.12-6.65-3.36-8.4-2.04-1.59-5.1-2.42-9.08-2.56-1.9,4.76-4.93,9.77-9.67,14.71,0,0-4.93,5.34-23.57,7.92,0,0-5.85,1.11-10.23,4.79,0,0,.73-18.06,12.79-26.17,0,0-7.31,5.16-8.04,6.63-1.25,2.53-10.2,11.46-8.56,24.03.32,2.48,1.37,7.67,5.64,13.19,1.08,1.41,2.67,3.35,4.75,5.53,1.82,1.9,3.27,3.19,5.48,5.16,1.68,1.49,3.96,3.46,6.76,5.71l-5.85-1.11s-20.47-12.16-21.56-28.38c-1.1-16.22,7.31-26.53,7.31-26.53,0,0,8.04-12.16,32.16-21.38,0,0,9.14-4.05,12.79-12.53,0,0,4.15,8.98,1.96,20.94,5.95.4,10.57,1.92,13.81,4.58,3.82,3.14,5.74,7.78,5.74,13.92,0,3.27-.93,6.15-2.79,8.67-1.86,2.51-4.39,4.46-7.58,5.83,3.78,1.06,6.76,3.07,8.95,6.03,2.19,2.96,3.29,6.49,3.29,10.59,0,6.27-2.03,11.2-6.1,14.78Z"/>
</svg>